<svg version="1.0" xmlns="http://www.w3.org/2000/svg" width="96.000000pt" height="96.000000pt" viewBox="0 0 96.000000 96.000000" preserveAspectRatio="xMidYMid meet">
<metadata fill="#ffffff">
Created by potrace 1.16, written by Peter Selinger 2001-2019
</metadata>
<g transform="translate(0.000000,96.000000) scale(0.100000,-0.100000)" fill="#ffffff" stroke="none">
<path d="M0 480 l0 -480 480 0 480 0 0 480 0 480 -480 0 -480 0 0 -480z m733 277 c15 -9 30 -30 34 -45 10 -35 10 -429 0 -464 -16 -58 -39 -63 -277 -63 -118 0 -227 3 -242 8 -54 15 -62 44 -66 229 -5 198 3 289 27 319 26 32 75 38 296 36 173 -2 205 -4 228 -20z" fill="#ffffff"/>
<path d="M450 580 c-18 -35 -25 -40 -54 -40 -19 0 -39 -7 -47 -16 -11 -14 -9 -20 20 -43 31 -25 32 -29 26 -73 -8 -56 4 -67 44 -39 36 26 46 26 82 0 40 -28 52 -17 44 39 -6 44 -5 48 26 73 29 23 31 29 20 43 -8 9 -28 16 -47 16 -29 0 -36 5 -54 40 -11 22 -25 40 -30 40 -5 0 -19 -18 -30 -40z" fill="#ffffff"/>
</g>
</svg>